<svg width="138" height="140" viewBox="0 0 138 140" fill="none" xmlns="http://www.w3.org/2000/svg">
<path fill-rule="evenodd" clip-rule="evenodd" d="M53.214 27.258C60.7982 27.258 66.9466 21.1562 66.9466 13.629C66.9466 6.10192 60.7982 0 53.214 0C45.6298 0 39.4813 6.10192 39.4813 13.629C39.4813 21.1562 45.6298 27.258 53.214 27.258ZM44.8501 32.3988C44.7245 32.3988 44.5995 32.4009 44.4752 32.4053H37.7644H17.6563V17.0378H11.7709V32.4053H5.14974C2.30561 32.4053 0 34.6936 0 37.5162C0 40.3387 2.30561 42.6271 5.14974 42.6271H11.7709V105.062C8.44798 105.737 5.46168 107.529 3.31688 110.136C1.17208 112.744 0.000411979 116.007 0 119.373V136.896H5.88543V116.452H11.7709V136.896H17.6563V116.452H23.5419V136.896H29.4273V119.373C29.4266 116.007 28.2553 112.744 26.1102 110.136C23.9655 107.529 20.9794 105.737 17.6563 105.062V42.6271H34.6169V130.814C34.6169 133.877 37.142 136.384 40.2287 136.384C43.3152 136.384 45.8402 133.877 45.8402 130.814V89.3378H60.4971V130.814C60.4971 133.877 63.0222 136.384 66.1089 136.384C69.1954 136.384 71.7204 133.877 71.7204 130.814V68.9767C74.8068 68.9767 84.3376 63.1462 84.3376 48.7891C84.3376 37.968 74.8068 32.3988 71.7204 32.3988H44.8501ZM111.155 35.1178C111.155 35.1178 111.156 35.1168 113.294 37.7826C115.432 35.1168 115.433 35.1178 115.433 35.1178L115.435 35.1188L115.438 35.1212L115.447 35.128L115.471 35.1471L115.547 35.2091C115.611 35.2609 115.699 35.3332 115.807 35.4241C116.024 35.6061 116.325 35.865 116.682 36.1894C117.393 36.8334 118.349 37.7547 119.316 38.8563C120.274 39.9479 121.304 41.2853 122.109 42.7644C122.9 44.2179 123.594 46.0285 123.594 48.0044C123.594 49.9803 122.9 51.7909 122.109 53.2444C121.304 54.7235 120.274 56.0608 119.316 57.1525C118.37 58.2309 117.433 59.1369 116.727 59.7785V66.8022C117.597 65.4237 118.812 63.9671 120.497 63.0018C122.222 62.0137 124.149 61.705 125.812 61.658C127.505 61.6103 129.187 61.8266 130.619 62.1043C132.063 62.3844 133.346 62.7456 134.263 63.0341C134.725 63.1796 135.101 63.3088 135.368 63.4042C135.452 63.4342 135.526 63.4607 135.588 63.4836C135.625 63.4972 135.657 63.5091 135.686 63.5197L135.778 63.5548L135.807 63.566L135.817 63.5698L135.821 63.5711L135.822 63.5718C135.822 63.5718 135.824 63.5725 134.567 66.7429C137.962 67.2479 137.962 67.2493 137.962 67.2493L137.962 67.251L137.961 67.2551L137.959 67.2656L137.955 67.2959L137.939 67.3931C137.926 67.4735 137.906 67.5849 137.881 67.7236C137.831 68.0009 137.755 68.389 137.651 68.8585C137.445 69.7911 137.118 71.0739 136.641 72.4556C136.167 73.8246 135.515 75.3786 134.627 76.8097C133.754 78.2165 132.521 79.7181 130.797 80.7062C129.073 81.6943 127.146 82.0027 125.482 82.0497C123.789 82.0978 122.107 81.8814 120.675 81.6037C119.231 81.3233 117.948 80.9621 117.031 80.6735C116.967 80.6534 116.904 80.6333 116.843 80.6139C116.804 80.6013 116.766 80.5887 116.727 80.5764V90.653C117.597 89.2745 118.812 87.8179 120.497 86.8526C122.222 85.8645 124.149 85.5558 125.812 85.5088C127.505 85.4611 129.187 85.6774 130.619 85.9551C132.063 86.2352 133.346 86.5963 134.263 86.8849C134.725 87.0304 135.101 87.1596 135.368 87.255C135.502 87.3027 135.609 87.3419 135.686 87.3705L135.778 87.4056L135.807 87.4168L135.817 87.4206L135.821 87.4219L135.822 87.4226C135.822 87.4226 135.824 87.4233 134.567 90.5937C137.962 91.0987 137.962 91.1001 137.962 91.1001L137.962 91.1018L137.961 91.1059L137.959 91.1164L137.955 91.1467L137.939 91.2438C137.926 91.3243 137.906 91.4357 137.881 91.5744C137.831 91.8517 137.755 92.2398 137.651 92.7093C137.445 93.6419 137.118 94.9247 136.641 96.3064C136.167 97.6754 135.515 99.2294 134.627 100.66C133.754 102.067 132.521 103.569 130.797 104.557C129.073 105.545 127.146 105.853 125.482 105.901C123.789 105.949 122.107 105.732 120.675 105.454C119.231 105.174 117.948 104.813 117.031 104.524C116.925 104.491 116.824 104.459 116.727 104.427V114.504C117.597 113.125 118.812 111.669 120.497 110.703C122.222 109.715 124.149 109.407 125.812 109.36C127.505 109.312 129.187 109.528 130.619 109.806C132.063 110.086 133.346 110.447 134.263 110.736C134.725 110.881 135.101 111.01 135.368 111.106C135.502 111.153 135.609 111.193 135.686 111.221L135.778 111.256L135.807 111.268L135.817 111.271L135.821 111.273L135.822 111.273C135.822 111.273 135.824 111.274 134.567 114.445C137.962 114.95 137.962 114.951 137.962 114.951L137.962 114.953L137.961 114.957L137.959 114.967L137.955 114.998L137.939 115.095C137.932 115.132 137.925 115.177 137.916 115.229C137.906 115.286 137.895 115.352 137.881 115.425C137.831 115.702 137.755 116.091 137.651 116.56C137.445 117.493 137.118 118.776 136.641 120.157C136.167 121.526 135.515 123.08 134.627 124.511C133.754 125.918 132.521 127.42 130.797 128.408C129.073 129.396 127.146 129.704 125.482 129.751C123.789 129.799 122.107 129.583 120.675 129.305C119.231 129.025 117.948 128.664 117.031 128.375C116.971 128.356 116.911 128.337 116.854 128.319C116.811 128.305 116.769 128.291 116.727 128.278V136.593C116.727 138.475 115.19 140 113.294 140C111.398 140 109.861 138.475 109.861 136.593V128.489C108.983 128.755 107.847 129.061 106.587 129.305C105.155 129.583 103.473 129.799 101.78 129.751C100.116 129.704 98.1894 129.396 96.4653 128.408C94.7411 127.42 93.5083 125.918 92.6353 124.511C91.7471 123.08 91.0948 121.526 90.6214 120.157C90.1435 118.776 89.8177 117.493 89.611 116.56C89.507 116.091 89.4314 115.702 89.381 115.425C89.3556 115.286 89.3367 115.175 89.3233 115.095L89.3075 114.998L89.3027 114.967L89.3013 114.957L89.3006 114.953L89.3003 114.951C89.3003 114.951 89.2999 114.95 92.6953 114.445C91.4381 111.274 91.4395 111.273 91.4395 111.273L91.4412 111.273L91.445 111.271L91.4549 111.268L91.4838 111.256L91.5765 111.221C91.6534 111.193 91.7601 111.153 91.8937 111.106C92.1608 111.01 92.5374 110.881 92.9992 110.736C93.9162 110.447 95.1984 110.086 96.6431 109.806C98.0747 109.528 99.7567 109.312 101.45 109.36C103.114 109.407 105.041 109.715 106.765 110.703C108.053 111.441 109.067 112.466 109.861 113.524V104.638C108.983 104.904 107.847 105.21 106.587 105.454C105.155 105.732 103.473 105.949 101.78 105.901C100.116 105.853 98.1894 105.545 96.4653 104.557C94.7411 103.569 93.5083 102.067 92.6353 100.66C91.7471 99.2294 91.0948 97.6754 90.6214 96.3064C90.1435 94.9247 89.8177 93.6419 89.611 92.7093C89.507 92.2398 89.4314 91.8517 89.381 91.5744C89.3556 91.4357 89.3367 91.3243 89.3233 91.2438L89.3075 91.1467L89.3027 91.1164L89.3013 91.1059L89.3006 91.1018L89.3003 91.1001C89.3003 91.1001 89.2999 91.0987 92.6953 90.5937C91.4381 87.4233 91.4395 87.4226 91.4395 87.4226L91.4412 87.4219L91.445 87.4206L91.4549 87.4168L91.4838 87.4056L91.5765 87.3705C91.6534 87.3419 91.7601 87.3027 91.8937 87.255C92.1608 87.1596 92.5374 87.0304 92.9992 86.8849C93.9162 86.5963 95.1984 86.2352 96.6431 85.9551C98.0747 85.6774 99.7567 85.4611 101.45 85.5088C103.114 85.5558 105.041 85.8645 106.765 86.8526C108.053 87.5906 109.067 88.6155 109.861 89.6734V80.7877C108.983 81.0534 107.847 81.3594 106.587 81.6037C105.155 81.8814 103.473 82.0978 101.78 82.0497C100.116 82.0027 98.1894 81.6943 96.4653 80.7062C94.7411 79.7181 93.5083 78.2165 92.6353 76.8097C91.7471 75.3786 91.0948 73.8246 90.6214 72.4556C90.1435 71.0739 89.8177 69.7911 89.611 68.8585C89.507 68.389 89.4314 68.0009 89.381 67.7236C89.3679 67.6527 89.3566 67.589 89.347 67.5331C89.3377 67.4793 89.3298 67.4322 89.3233 67.3931L89.3075 67.2959L89.3027 67.2656L89.3013 67.2551L89.3006 67.251L89.3003 67.2493C89.3003 67.2493 89.2999 67.2479 92.6953 66.7429C91.4381 63.5725 91.4395 63.5718 91.4395 63.5718L91.4412 63.5711L91.445 63.5698L91.4549 63.566L91.4838 63.5548L91.5765 63.5197C91.6534 63.4911 91.7601 63.4519 91.8937 63.4042C92.1608 63.3088 92.5374 63.1796 92.9992 63.0341C93.9162 62.7456 95.1984 62.3844 96.6431 62.1043C98.0747 61.8266 99.7567 61.6103 101.45 61.658C103.114 61.705 105.041 62.0137 106.765 63.0018C108.053 63.7398 109.067 64.7647 109.861 65.8227V59.7785C109.156 59.1369 108.219 58.2309 107.273 57.1525C106.314 56.0608 105.285 54.7235 104.48 53.2444C103.689 51.7909 102.995 49.9803 102.995 48.0044C102.995 46.0285 103.689 44.2179 104.48 42.7644C105.285 41.2853 106.314 39.9479 107.273 38.8563C108.239 37.7547 109.196 36.8334 109.906 36.1894C110.264 35.865 110.565 35.6061 110.782 35.4241C110.89 35.3332 110.978 35.2609 111.041 35.2091L111.118 35.1471L111.142 35.128L111.15 35.1212L111.154 35.1188L111.155 35.1178ZM92.6953 66.7429L89.2999 67.2479C89.0631 65.6778 89.9498 64.1538 91.4381 63.5725L92.6953 66.7429ZM92.6953 90.5937L89.2999 91.0987C89.0631 89.5286 89.9498 88.0046 91.4381 87.4233L92.6953 90.5937ZM92.6953 114.445L89.2999 114.95C89.0631 113.379 89.9498 111.855 91.4381 111.274L92.6953 114.445ZM134.567 114.445L135.824 111.274C137.312 111.855 138.199 113.379 137.962 114.95L134.567 114.445ZM134.567 90.5937L135.824 87.4233C137.312 88.0046 138.199 89.5286 137.962 91.0987L134.567 90.5937ZM134.567 66.7429L135.824 63.5725C137.312 64.1538 138.199 65.6778 137.962 67.2479L134.567 66.7429ZM113.294 37.7826L111.156 35.1168C112.408 34.1283 114.181 34.1283 115.432 35.1168L113.294 37.7826Z" fill="white"/>
</svg>
