<svg width="152" height="143" viewBox="0 0 152 143" fill="none" xmlns="http://www.w3.org/2000/svg">
<path d="M25.0936 8.24364V15.4873L39.5067 25.1455L37.1045 44.4619L41.9089 63.7782L39.5067 83.0946L44.311 102.411L51.5176 107.24L53.9198 124.142C53.9198 124.142 53.9198 133.8 61.1263 136.215C68.3329 138.629 77.9416 141.044 77.9416 141.044L92.3547 136.215C92.3547 136.215 101.963 126.556 101.963 121.727C101.963 116.898 101.963 109.655 101.963 109.655L109.17 92.7528L111.572 61.3637L113.974 46.8764L109.17 25.1455L118.779 22.7309L125.985 13.0727V5.8291L104.366 10.6582L92.3547 5.8291L73.1373 1L58.7242 5.8291L49.1154 10.6582L25.0936 8.24364Z" fill="white"/>
<path d="M150.079 23.5879L136.521 24.5109L118.707 30.6129L111.699 33.7534C111.699 33.7534 86.5154 37.3099 86.9204 51.5157C86.9204 51.5157 85.7916 60.2834 91.6605 66.486C96.2288 71.3142 98.9223 77.8046 97.7811 84.3596C97.0277 88.6866 94.7405 92.9576 89.3499 95.5472L98.0719 98.6164L101.844 109.421C101.844 109.421 107.167 107.729 110.406 99.4088C110.406 99.4088 112.785 85.0001 112.634 84.5435C112.482 84.0869 111.723 69.7797 111.723 69.7797L110.963 64.757L114.618 61.9528L129.487 58.1623L141.143 50.1213L148.244 37.9499L150.079 23.5879Z" fill="white"/>
<path d="M1 23.5879L14.5581 24.5109L32.3715 30.6129L39.3799 33.7534C39.3799 33.7534 64.5635 37.3099 64.1585 51.5157C64.1585 51.5157 65.287 60.2834 59.4184 66.486C54.85 71.3142 52.1566 77.8046 53.2978 84.3596C54.0512 88.6866 56.3384 92.9576 61.7289 95.5472L53.0069 98.6164L49.2353 109.421C49.2353 109.421 43.9118 107.729 40.6724 99.4088C40.6724 99.4088 38.2934 85.0001 38.4452 84.5435C38.5971 84.0869 39.3563 69.7797 39.3563 69.7797L40.1156 64.757L36.4608 61.9528L21.5915 58.1623L9.9365 50.1215L2.83482 37.9501L1 23.5879Z" fill="white"/>
<path d="M56.2491 94.3625L50.693 110.983L52.1012 123.302L56.5501 123.708L76.2924 122.151L97.5072 124.479L101.256 120.835L101.892 107.505L96.3187 96.675L72.3593 95.9211L56.2491 94.3625Z" fill="white"/>
<path d="M52.1988 59.7279C52.1988 59.7279 44.9216 59.205 43.0566 57.34C41.1916 55.4749 41.1916 52.4508 43.0566 50.5858C44.9216 48.7208 47.9458 48.7208 49.8108 50.5858C51.676 52.4508 52.1988 59.7279 52.1988 59.7279Z" fill="#198754"/>
<path d="M36.0619 47.6894L40.9654 25.4351C40.9654 25.4351 22.4829 23.9263 25.3119 7.51856C25.3119 7.51856 49.2636 15.4397 56.053 8.65004C56.053 8.65004 71.0629 -7.38664 95.026 8.54681C103.021 13.8633 125.767 7.41532 125.767 7.41532C128.596 23.8231 110.114 25.3319 110.114 25.3319L115.017 47.5862" stroke="white" stroke-width="2" stroke-miterlimit="10" stroke-linecap="round" stroke-linejoin="round"/>
<path d="M57.3907 95.2507H95.2349C95.8894 95.2507 96.516 95.5246 96.9391 96.0239C98.9766 98.4284 104.505 106.485 101.979 120.802C101.537 123.305 99.1761 124.993 96.6758 124.532C88.3114 122.991 69.4258 120.226 56.3466 123.747C53.6856 124.463 51.0369 122.654 50.7079 119.919C49.9812 113.875 49.9482 103.968 55.5455 96.1719C55.9669 95.5852 56.6686 95.2507 57.3907 95.2507V95.2507Z" stroke="white" stroke-width="2" stroke-miterlimit="10" stroke-linecap="round" stroke-linejoin="round"/>
<path d="M60.7224 105.543C60.7224 105.543 59.0704 112.413 68.3117 112.584" stroke="#107C10" stroke-width="2" stroke-miterlimit="10" stroke-linecap="round" stroke-linejoin="round"/>
<path d="M58.9429 132.469C58.9429 132.469 74.2192 151.517 92.1357 133.223" stroke="white" stroke-width="2" stroke-miterlimit="10" stroke-linecap="round" stroke-linejoin="round"/>
<path d="M31.0051 33.0562C23.6314 28.3454 13.248 22.0173 1.08084 25.0126C1.08084 25.0126 -2.50252 58.7714 38.0457 62.3547L40.9654 64.4748C40.9654 64.4748 35.4533 85.9342 44.0017 103.222" stroke="white" stroke-width="2" stroke-miterlimit="10" stroke-linecap="round" stroke-linejoin="round"/>
<path d="M98.88 59.7279C98.88 59.7279 106.157 59.205 108.022 57.34C109.887 55.4749 109.887 52.4508 108.022 50.5858C106.157 48.7208 103.133 48.7208 101.268 50.5858C99.403 52.4508 98.88 59.7279 98.88 59.7279Z" fill="#198754"/>
<path d="M92.7446 104.904C92.7446 104.904 94.3592 112.25 85.3274 112.433" stroke="#198754" stroke-width="2" stroke-miterlimit="10" stroke-linecap="round" stroke-linejoin="round"/>
<path d="M120.827 32.0377C128.118 27.4892 138.218 21.4334 149.998 24.3535C149.998 24.3535 153.561 58.1507 113.245 61.7381L110.342 63.8606C110.342 63.8606 116.415 83.0787 107.915 100.386" stroke="white" stroke-width="2" stroke-miterlimit="10" stroke-linecap="round" stroke-linejoin="round"/>
</svg>
